PathFileType	4	(x/y/z)	S02_BK_Cal_T01
DataRate	CameraRate	NumFrames	NumMarkers	Units	OrigDataRate	OrigDataStartFrame	OrigNumFrames
240	240	5	51	mm	240	601	2400
Frame#	Time	Sternum			R.Acromium			L.Acromium			Top.Head			R.ASIS			L.ASIS			R.PSIS			L.PSIS			R.Great.Tro			L.Great.Tro			R.Iliac.Crest			L.Iliac.Crest			V.Sacral			R.Thigh.Upper.Post			R.Thigh.Lower.Ant			R.Thigh.Lower.Post			R.Thigh.Upper.Ant			R.Knee.Lat			R.Knee.Med			R.Shank.Upper.Post			R.Shank.Lower.Ant			R.Shank.Lower.Post			R.Shank.Upper.Ant			R.Ankle.Lat			R.Ankle.Med			R.Heel.Upper			R.Heel.Med			R.Heel.Lat			R.Toe.Lat			R.Toe.Med			R.Toe.Tip			L.Thigh.Upper.Post			L.Thigh.Lower.Ant			L.Thigh.Lower.Post			L.Thigh.Upper.Ant			L.Knee.Lat			L.Knee.Med			L.Shank.Upper.Post			L.Shank.Lower.Ant			L.Shank.Lower.Post			L.Shank.Upper.Ant			L.Ankle.Lat			L.Ankle.Med			L.Heel.Upper			L.Heel.Med			L.Heel.Lat			L.Toe.Lat			L.Toe.Med			L.Toe.Tip			Cervical.Spine			Back			
		X1	Y1	Z1	X2	Y2	Z2	X3	Y3	Z3	X4	Y4	Z4	X5	Y5	Z5	X6	Y6	Z6	X7	Y7	Z7	X8	Y8	Z8	X9	Y9	Z9	X10	Y10	Z10	X11	Y11	Z11	X12	Y12	Z12	X13	Y13	Z13	X14	Y14	Z14	X15	Y15	Z15	X16	Y16	Z16	X17	Y17	Z17	X18	Y18	Z18	X19	Y19	Z19	X20	Y20	Z20	X21	Y21	Z21	X22	Y22	Z22	X23	Y23	Z23	X24	Y24	Z24	X25	Y25	Z25	X26	Y26	Z26	X27	Y27	Z27	X28	Y28	Z28	X29	Y29	Z29	X30	Y30	Z30	X31	Y31	Z31	X32	Y32	Z32	X33	Y33	Z33	X34	Y34	Z34	X35	Y35	Z35	X36	Y36	Z36	X37	Y37	Z37	X38	Y38	Z38	X39	Y39	Z39	X40	Y40	Z40	X41	Y41	Z41	X42	Y42	Z42	X43	Y43	Z43	X44	Y44	Z44	X45	Y45	Z45	X46	Y46	Z46	X47	Y47	Z47	X48	Y48	Z48	X49	Y49	Z49	X50	Y50	Z50	X51	Y51	Z51	

601	2.5	626.14	1067.4	314.77	524.19	1306.8	461.05	514.06	1305.8	165.27	567.08	1596.1	313.18	585.42	882.1	417.96	580.42	875.17	203.5	364.13	915.95	367.32	357.68	917.82	292.43	515.74	779.31	514.03	456.18	791.86	120.34	487.21	935.09	476.77	459.89	932.09	145.99	337.83	867.77	325.08	581.37	588.13	509.98	657.55	526.53	481.17	591.45	499.03	495.49	643.26	614.61	492.18	627.41	428.29	485.47	624.78	405.11	346.27	493.9	257.3	477.53	536.8	156.32	468.45	476.65	186.26	473.86	557.52	222.37	481.01	459.05	90.524	466.58	473.95	96.591	382.24	399.43	73.47	406.41	416.68	40.551	381.49	398.17	42.481	443.07	552.65	41.554	508.02	600.06	34.881	405.68	639.13	63.978	467.98	509.72	566.33	124.09	607.88	517.61	110.32	542.61	481.75	136.91	567.24	603.78	100.53	616.08	434.86	113.28	631.32	421.69	249.09	497.53	292.2	113.18	541.39	189.33	112.89	477.38	221.19	123.35	556.05	264.23	104.3	465.23	103.15	123.14	485.5	92.969	205.02	406.41	67.443	162.63	420.38	40.834	193.95	408.12	40.217	133.56	567.72	36.847	79.212	604.79	45.738	184.3	657.38	62.992	129.78	444.27	1367.2	314.87	369.12	1118.9	326.29
602	2.5042	626.16	1067.4	314.78	524.19	1306.8	461.05	514.07	1305.8	165.27	567.07	1596.1	313.18	585.43	882.1	417.97	580.44	875.17	203.5	364.14	915.96	367.32	357.69	917.83	292.43	515.74	779.31	514.03	456.19	791.86	120.34	487.22	935.09	476.77	459.9	932.09	145.99	337.83	867.77	325.08	581.37	588.13	509.99	657.56	526.52	481.18	591.46	499.02	495.5	643.27	614.61	492.18	627.42	428.29	485.48	624.79	405.11	346.28	493.91	257.3	477.52	536.8	156.32	468.46	476.65	186.26	473.85	557.5	222.4	481.1	459.05	90.525	466.58	473.96	96.591	382.24	399.44	73.476	406.41	416.68	40.552	381.49	398.18	42.482	443.07	552.65	41.552	508.03	600.06	34.881	405.68	639.13	63.976	467.98	509.73	566.33	124.09	607.9	517.61	110.33	542.62	481.75	136.91	567.25	603.78	100.54	616.09	434.86	113.29	631.32	421.67	249.11	497.53	292.2	113.18	541.39	189.33	112.9	477.38	221.19	123.35	556.05	264.23	104.31	465.23	103.15	123.14	485.5	92.969	205.02	406.41	67.443	162.63	420.38	40.836	193.95	408.12	40.219	133.56	567.72	36.847	79.213	604.79	45.736	184.3	657.38	62.99	129.78	444.27	1367.2	314.87	369.13	1118.9	326.28
603	2.5083	626.17	1067.4	314.78	524.19	1306.8	461.05	514.08	1305.8	165.27	567.06	1596.1	313.18	585.44	882.1	417.97	580.45	875.17	203.51	364.15	915.96	367.33	357.7	917.83	292.43	515.74	779.31	514.04	456.2	791.86	120.35	487.23	935.09	476.77	459.92	932.1	145.99	337.84	867.77	325.08	581.38	588.13	509.99	657.56	526.52	481.18	591.46	499.02	495.5	643.27	614.61	492.19	627.43	428.29	485.48	624.81	405.11	346.28	493.91	257.3	477.52	536.81	156.32	468.46	476.65	186.25	473.85	557.49	222.43	481.19	459.05	90.526	466.58	473.96	96.591	382.24	399.44	73.482	406.41	416.68	40.553	381.49	398.18	42.483	443.07	552.65	41.551	508.03	600.06	34.881	405.68	639.13	63.973	467.98	509.74	566.33	124.09	607.91	517.61	110.34	542.63	481.75	136.91	567.26	603.78	100.54	616.1	434.86	113.3	631.32	421.66	249.14	497.53	292.2	113.18	541.39	189.33	112.9	477.38	221.19	123.35	556.05	264.23	104.31	465.23	103.15	123.15	485.5	92.968	205.02	406.41	67.444	162.63	420.38	40.838	193.95	408.12	40.221	133.56	567.72	36.847	79.214	604.79	45.735	184.3	657.38	62.989	129.78	444.27	1367.2	314.86	369.14	1118.9	326.28
604	2.5125	626.19	1067.4	314.79	524.19	1306.8	461.05	514.1	1305.9	165.27	567.05	1596.1	313.17	585.45	882.09	417.98	580.46	875.17	203.51	364.16	915.96	367.33	357.71	917.83	292.43	515.75	779.31	514.04	456.21	791.86	120.35	487.24	935.09	476.77	459.93	932.1	145.99	337.85	867.77	325.08	581.38	588.13	510	657.57	526.52	481.19	591.47	499.02	495.51	643.28	614.6	492.2	627.44	428.28	485.49	624.82	405.11	346.28	493.91	257.29	477.51	536.81	156.32	468.46	476.64	186.25	473.84	557.48	222.45	481.27	459.05	90.526	466.58	473.96	96.591	382.24	399.44	73.487	406.4	416.68	40.554	381.49	398.18	42.484	443.07	552.65	41.55	508.03	600.06	34.881	405.68	639.13	63.972	467.98	509.75	566.33	124.09	607.92	517.61	110.34	542.64	481.75	136.92	567.28	603.78	100.55	616.11	434.86	113.3	631.33	421.65	249.16	497.54	292.2	113.19	541.39	189.33	112.9	477.39	221.19	123.35	556.06	264.23	104.31	465.23	103.15	123.15	485.5	92.969	205.03	406.41	67.445	162.63	420.38	40.84	193.94	408.12	40.222	133.56	567.72	36.847	79.214	604.79	45.734	184.3	657.38	62.988	129.78	444.28	1367.2	314.86	369.15	1118.8	326.28
605	2.5167	626.21	1067.4	314.79	524.19	1306.8	461.05	514.11	1305.9	165.27	567.04	1596.1	313.17	585.45	882.09	417.98	580.47	875.17	203.52	364.17	915.97	367.33	357.72	917.83	292.44	515.75	779.3	514.05	456.22	791.87	120.36	487.25	935.09	476.77	459.95	932.1	146	337.86	867.77	325.09	581.39	588.13	510.01	657.57	526.52	481.19	591.47	499.02	495.51	643.28	614.6	492.21	627.44	428.28	485.49	624.84	405.11	346.28	493.91	257.29	477.51	536.81	156.32	468.46	476.64	186.24	473.83	557.47	222.48	481.35	459.06	90.527	466.58	473.96	96.592	382.24	399.44	73.491	406.4	416.68	40.555	381.49	398.18	42.484	443.07	552.65	41.549	508.03	600.06	34.881	405.68	639.13	63.97	467.98	509.77	566.33	124.09	607.93	517.61	110.35	542.65	481.75	136.92	567.29	603.78	100.55	616.11	434.86	113.31	631.33	421.64	249.19	497.54	292.2	113.19	541.39	189.33	112.9	477.39	221.19	123.35	556.06	264.23	104.32	465.23	103.15	123.15	485.5	92.969	205.03	406.41	67.446	162.63	420.38	40.843	193.94	408.12	40.223	133.56	567.72	36.847	79.215	604.79	45.734	184.3	657.38	62.987	129.78	444.28	1367.2	314.86	369.15	1118.8	326.27
